<?xml version="1.0" encoding="UTF-8" standalone="no"?>
<!-- Generator: Adobe Illustrator 16.0.0, SVG Export Plug-In . SVG Version: 6.00 Build 0)  -->
<svg xmlns:dc="http://purl.org/dc/elements/1.1/" xmlns:cc="http://creativecommons.org/ns#" xmlns:rdf="http://www.w3.org/1999/02/22-rdf-syntax-ns#" xmlns:svg="http://www.w3.org/2000/svg" xmlns="http://www.w3.org/2000/svg" xmlns:sodipodi="http://sodipodi.sourceforge.net/DTD/sodipodi-0.dtd" xmlns:inkscape="http://www.inkscape.org/namespaces/inkscape" version="1.1" id="Layer_1" x="0px" y="0px" width="305.83954" height="158.92799" viewBox="0 0 305.83954 158.928" enable-background="new 0 0 566.93 283.46" xml:space="preserve" inkscape:version="0.48.4 r9939" sodipodi:docname="logo_atnos_black_bis.svg"><metadata id="metadata3270"><rdf:RDF><cc:Work rdf:about=""><dc:format>image/svg+xml</dc:format><dc:type rdf:resource="http://purl.org/dc/dcmitype/StillImage"/><dc:title/></cc:Work></rdf:RDF></metadata><defs id="defs3268"/><sodipodi:namedview pagecolor="#ffffff" bordercolor="#666666" borderopacity="1" objecttolerance="10" gridtolerance="10" guidetolerance="10" inkscape:pageopacity="0" inkscape:pageshadow="2" inkscape:window-width="1920" inkscape:window-height="1025" id="namedview3266" showgrid="false" inkscape:zoom="1.4993033" inkscape:cx="43.80415" inkscape:cy="-49.131463" inkscape:window-x="1366" inkscape:window-y="27" inkscape:window-maximized="1" inkscape:current-layer="Layer_1" fit-margin-top="10" fit-margin-left="10" fit-margin-right="10" fit-margin-bottom="10"/><g id="g3190" transform="translate(-130.699,-62.627)"><g id="g3192"><path d="m 272.655,188.532 c 0.204,-0.186 0.324,-0.401 0.357,-0.649 0.036,-0.258 -0.024,-0.478 -0.179,-0.656 -0.154,-0.18 -0.36,-0.27 -0.621,-0.27 h -2.962 c -0.383,0 -0.735,-0.072 -1.054,-0.223 -0.319,-0.147 -0.585,-0.345 -0.799,-0.592 -0.213,-0.246 -0.371,-0.541 -0.473,-0.879 -0.102,-0.34 -0.126,-0.702 -0.074,-1.084 0.052,-0.383 0.176,-0.744 0.37,-1.084 0.193,-0.339 0.432,-0.633 0.713,-0.879 0.28,-0.248 0.6,-0.445 0.961,-0.594 0.358,-0.147 0.73,-0.222 1.113,-0.222 h 4.908 c 0.186,0 0.265,0.093 0.24,0.278 l -0.177,1.295 c -0.025,0.187 -0.13,0.279 -0.315,0.279 h -4.908 c -0.259,0 -0.491,0.09 -0.695,0.268 -0.203,0.18 -0.323,0.398 -0.358,0.658 -0.034,0.248 0.027,0.463 0.18,0.648 0.153,0.186 0.36,0.277 0.62,0.277 h 2.963 c 0.383,0 0.734,0.074 1.054,0.223 0.32,0.149 0.585,0.346 0.798,0.592 0.214,0.248 0.372,0.541 0.473,0.881 0.101,0.34 0.126,0.7 0.075,1.082 -0.052,0.385 -0.176,0.744 -0.371,1.085 -0.194,0.339 -0.432,0.632 -0.712,0.88 -0.281,0.246 -0.601,0.443 -0.961,0.592 -0.361,0.148 -0.731,0.223 -1.114,0.223 h -4.926 c -0.186,0 -0.265,-0.093 -0.24,-0.277 l 0.177,-1.297 c 0.025,-0.186 0.13,-0.278 0.315,-0.278 h 4.926 c 0.26,0.001 0.491,-0.091 0.696,-0.277 z" id="path3194" inkscape:connector-curvature="0" style="fill:#282828"/><path d="m 285.934,181.401 c 0.186,0 0.266,0.093 0.241,0.278 l -0.847,6.203 c -0.053,0.385 -0.175,0.744 -0.369,1.085 -0.195,0.339 -0.434,0.632 -0.713,0.88 -0.282,0.246 -0.602,0.443 -0.962,0.592 -0.359,0.148 -0.73,0.223 -1.113,0.223 h -2.963 c -0.382,0 -0.734,-0.074 -1.054,-0.223 -0.32,-0.149 -0.585,-0.346 -0.798,-0.592 -0.214,-0.248 -0.372,-0.541 -0.473,-0.88 -0.102,-0.341 -0.127,-0.7 -0.075,-1.085 l 0.505,-3.703 c 0.052,-0.383 0.176,-0.744 0.37,-1.084 0.194,-0.339 0.432,-0.633 0.714,-0.879 0.279,-0.248 0.599,-0.445 0.959,-0.594 0.36,-0.147 0.731,-0.222 1.113,-0.222 h 5.465 z m -5.717,1.853 c -0.259,0 -0.489,0.09 -0.693,0.268 -0.204,0.18 -0.323,0.398 -0.357,0.658 l -0.506,3.703 c -0.035,0.26 0.024,0.48 0.18,0.658 0.155,0.179 0.361,0.269 0.62,0.269 h 2.964 c 0.259,0 0.491,-0.09 0.694,-0.269 0.203,-0.178 0.323,-0.398 0.359,-0.658 l 0.593,-4.352 c 0.025,-0.186 -0.055,-0.277 -0.241,-0.277 h -3.613 z" id="path3196" inkscape:connector-curvature="0" style="fill:#282828"/><path d="m 287.818,190.338 c -0.127,-0.204 -0.176,-0.41 -0.146,-0.621 l 1.601,-11.742 c 0.025,-0.185 0.132,-0.277 0.316,-0.277 h 1.297 c 0.185,0 0.265,0.093 0.239,0.277 l -1.437,10.538 c -0.024,0.187 0.054,0.278 0.239,0.278 h 0.649 c 0.185,0 0.264,0.093 0.238,0.277 l -0.176,1.297 c -0.026,0.186 -0.131,0.278 -0.317,0.278 h -1.852 c -0.307,0.001 -0.524,-0.102 -0.651,-0.305 z" id="path3198" inkscape:connector-curvature="0" style="fill:#282828"/><path d="m 302.103,181.68 -0.846,6.203 c -0.052,0.385 -0.175,0.744 -0.371,1.085 -0.194,0.339 -0.433,0.632 -0.712,0.88 -0.281,0.246 -0.602,0.443 -0.961,0.592 -0.36,0.148 -0.73,0.223 -1.113,0.223 h -2.964 c -0.383,0 -0.733,-0.074 -1.054,-0.223 -0.318,-0.148 -0.585,-0.346 -0.798,-0.592 -0.214,-0.248 -0.371,-0.541 -0.473,-0.88 -0.102,-0.341 -0.127,-0.7 -0.074,-1.085 l 0.845,-6.203 c 0.026,-0.186 0.132,-0.278 0.316,-0.278 h 1.297 c 0.185,0 0.265,0.093 0.24,0.278 l -0.847,6.203 c -0.035,0.26 0.023,0.48 0.178,0.658 0.155,0.179 0.362,0.269 0.621,0.269 h 2.964 c 0.26,0 0.492,-0.09 0.695,-0.269 0.202,-0.178 0.321,-0.398 0.356,-0.658 l 0.847,-6.203 c 0.025,-0.186 0.131,-0.278 0.316,-0.278 h 1.295 c 0.188,-10e-4 0.267,0.092 0.243,0.278 z" id="path3200" inkscape:connector-curvature="0" style="fill:#282828"/><path d="m 308.908,188.81 c 0.187,0 0.267,0.093 0.24,0.278 l -0.176,1.297 c -0.025,0.185 -0.131,0.277 -0.316,0.277 h -1.667 c -0.383,0 -0.734,-0.074 -1.053,-0.223 -0.32,-0.148 -0.586,-0.346 -0.8,-0.592 -0.212,-0.248 -0.37,-0.541 -0.472,-0.88 -0.103,-0.341 -0.128,-0.7 -0.075,-1.085 l 0.596,-4.371 c 0.026,-0.184 -0.054,-0.277 -0.239,-0.277 h -1.297 c -0.185,0 -0.265,-0.092 -0.239,-0.277 l 0.174,-1.277 c 0.024,-0.186 0.131,-0.278 0.314,-0.278 h 1.298 c 0.185,0 0.291,-0.094 0.316,-0.278 l 0.3,-2.204 c 0.025,-0.185 0.131,-0.276 0.315,-0.276 h 1.296 c 0.186,0 0.266,0.092 0.241,0.276 l -0.301,2.204 c -0.025,0.185 0.054,0.278 0.239,0.278 h 2.223 c 0.185,0 0.266,0.093 0.24,0.278 l -0.178,1.295 c -0.024,0.187 -0.13,0.279 -0.314,0.279 h -2.223 c -0.186,0 -0.29,0.092 -0.315,0.277 l -0.593,4.352 c -0.036,0.26 0.022,0.48 0.178,0.658 0.154,0.179 0.361,0.269 0.621,0.269 h 1.667 z" id="path3202" inkscape:connector-curvature="0" style="fill:#282828"/><path d="m 311.249,190.662 c -0.185,0 -0.265,-0.093 -0.24,-0.277 l 1.187,-8.705 c 0.025,-0.186 0.131,-0.278 0.315,-0.278 h 1.298 c 0.185,0 0.265,0.093 0.239,0.278 l -1.187,8.705 c -0.025,0.185 -0.131,0.277 -0.315,0.277 h -1.297 z m 1.452,-12.687 c 0.025,-0.185 0.131,-0.277 0.316,-0.277 h 1.296 c 0.186,0 0.266,0.093 0.24,0.277 l -0.177,1.297 c -0.026,0.186 -0.131,0.277 -0.316,0.277 h -1.296 c -0.186,0 -0.265,-0.092 -0.24,-0.277 l 0.177,-1.297 z" id="path3204" inkscape:connector-curvature="0" style="fill:#282828"/><path d="m 324.828,181.401 c 0.186,0 0.267,0.093 0.24,0.278 l -0.846,6.203 c -0.053,0.385 -0.176,0.744 -0.369,1.085 -0.195,0.339 -0.434,0.632 -0.713,0.88 -0.282,0.246 -0.602,0.443 -0.962,0.592 -0.359,0.148 -0.73,0.223 -1.113,0.223 h -2.963 c -0.383,0 -0.735,-0.074 -1.054,-0.223 -0.319,-0.148 -0.585,-0.346 -0.798,-0.592 -0.216,-0.248 -0.371,-0.541 -0.474,-0.88 -0.102,-0.341 -0.126,-0.7 -0.074,-1.085 l 0.504,-3.703 c 0.053,-0.383 0.177,-0.744 0.37,-1.084 0.195,-0.339 0.433,-0.633 0.715,-0.879 0.278,-0.248 0.6,-0.445 0.959,-0.594 0.359,-0.147 0.73,-0.222 1.113,-0.222 h 5.465 z m -5.717,1.853 c -0.259,0 -0.489,0.09 -0.693,0.268 -0.204,0.18 -0.323,0.398 -0.357,0.658 l -0.507,3.703 c -0.034,0.26 0.025,0.48 0.181,0.658 0.154,0.179 0.36,0.269 0.62,0.269 h 2.964 c 0.259,0 0.49,-0.09 0.693,-0.269 0.204,-0.178 0.324,-0.398 0.359,-0.658 l 0.593,-4.352 c 0.025,-0.186 -0.056,-0.277 -0.241,-0.277 h -3.612 z" id="path3206" inkscape:connector-curvature="0" style="fill:#282828"/><path d="m 334.216,181.623 c 0.319,0.148 0.585,0.346 0.8,0.594 0.213,0.246 0.369,0.54 0.471,0.879 0.103,0.34 0.129,0.701 0.076,1.084 l -0.847,6.205 c -0.025,0.185 -0.131,0.277 -0.315,0.277 h -1.296 c -0.186,0 -0.266,-0.093 -0.241,-0.277 l 0.847,-6.205 c 0.034,-0.26 -0.024,-0.479 -0.18,-0.658 -0.153,-0.178 -0.36,-0.268 -0.62,-0.268 h -3.612 c -0.186,0 -0.29,0.092 -0.314,0.277 l -0.935,6.854 c -0.025,0.185 -0.13,0.277 -0.316,0.277 h -1.296 c -0.187,0 -0.265,-0.093 -0.239,-0.277 l 1.187,-8.705 c 0.024,-0.186 0.129,-0.278 0.314,-0.278 h 5.464 c 0.381,-10e-4 0.732,0.074 1.052,0.221 z" id="path3208" inkscape:connector-curvature="0" style="fill:#282828"/><path d="m 343.312,188.532 c 0.204,-0.186 0.324,-0.401 0.358,-0.649 0.034,-0.258 -0.026,-0.478 -0.181,-0.656 -0.155,-0.18 -0.36,-0.27 -0.621,-0.27 h -2.962 c -0.383,0 -0.734,-0.072 -1.053,-0.223 -0.321,-0.147 -0.587,-0.345 -0.8,-0.592 -0.213,-0.246 -0.371,-0.541 -0.473,-0.879 -0.103,-0.34 -0.127,-0.702 -0.074,-1.084 0.052,-0.383 0.176,-0.744 0.368,-1.084 0.195,-0.339 0.433,-0.633 0.715,-0.879 0.279,-0.248 0.6,-0.445 0.96,-0.594 0.358,-0.147 0.73,-0.222 1.114,-0.222 h 4.907 c 0.186,0 0.265,0.093 0.24,0.278 l -0.178,1.295 c -0.025,0.187 -0.13,0.279 -0.315,0.279 h -4.907 c -0.26,0 -0.49,0.09 -0.694,0.268 -0.204,0.18 -0.323,0.398 -0.358,0.658 -0.034,0.248 0.026,0.463 0.181,0.648 0.153,0.186 0.36,0.277 0.619,0.277 h 2.963 c 0.384,0 0.734,0.074 1.055,0.223 0.318,0.148 0.585,0.346 0.797,0.592 0.214,0.248 0.372,0.541 0.474,0.881 0.102,0.34 0.127,0.7 0.075,1.082 -0.053,0.385 -0.176,0.744 -0.37,1.085 -0.194,0.339 -0.434,0.632 -0.713,0.88 -0.28,0.246 -0.601,0.443 -0.961,0.592 -0.36,0.149 -0.73,0.223 -1.113,0.223 h -4.927 c -0.186,0 -0.265,-0.093 -0.239,-0.277 l 0.177,-1.297 c 0.025,-0.186 0.13,-0.278 0.315,-0.278 h 4.926 c 0.259,0.001 0.491,-0.091 0.695,-0.277 z" id="path3210" inkscape:connector-curvature="0" style="fill:#282828"/><path d="m 353.384,190.662 c -0.185,0 -0.266,-0.093 -0.24,-0.277 l 1.187,-8.705 c 0.025,-0.186 0.131,-0.278 0.315,-0.278 h 1.297 c 0.186,0 0.266,0.093 0.239,0.278 l -1.187,8.705 c -0.024,0.185 -0.13,0.277 -0.314,0.277 h -1.297 z m 1.452,-12.687 c 0.024,-0.185 0.131,-0.277 0.315,-0.277 h 1.297 c 0.185,0 0.266,0.093 0.239,0.277 l -0.177,1.297 c -0.025,0.186 -0.13,0.277 -0.315,0.277 h -1.296 c -0.186,0 -0.266,-0.092 -0.24,-0.277 l 0.177,-1.297 z" id="path3212" inkscape:connector-curvature="0" style="fill:#282828"/><path d="m 365.701,181.623 c 0.318,0.148 0.585,0.346 0.799,0.594 0.214,0.246 0.37,0.54 0.472,0.879 0.103,0.34 0.129,0.701 0.076,1.084 l -0.847,6.205 c -0.025,0.185 -0.131,0.277 -0.315,0.277 h -1.298 c -0.184,0 -0.264,-0.093 -0.239,-0.277 l 0.847,-6.205 c 0.034,-0.26 -0.024,-0.479 -0.18,-0.658 -0.153,-0.178 -0.36,-0.268 -0.62,-0.268 h -3.612 c -0.186,0 -0.29,0.092 -0.314,0.277 l -0.935,6.854 c -0.025,0.185 -0.131,0.277 -0.316,0.277 h -1.296 c -0.187,0 -0.265,-0.093 -0.24,-0.277 l 1.188,-8.705 c 0.024,-0.186 0.129,-0.278 0.314,-0.278 h 5.464 c 0.381,-10e-4 0.733,0.074 1.052,0.221 z" id="path3214" inkscape:connector-curvature="0" style="fill:#282828"/><path d="m 374.102,188.81 c 0.186,0 0.267,0.093 0.24,0.278 l -0.177,1.297 c -0.024,0.185 -0.13,0.277 -0.315,0.277 h -1.668 c -0.382,0 -0.733,-0.074 -1.052,-0.223 -0.32,-0.148 -0.586,-0.346 -0.8,-0.592 -0.213,-0.248 -0.37,-0.541 -0.473,-0.88 -0.103,-0.341 -0.127,-0.7 -0.074,-1.085 l 0.597,-4.371 c 0.025,-0.184 -0.056,-0.277 -0.24,-0.277 h -1.298 c -0.184,0 -0.264,-0.092 -0.239,-0.277 l 0.174,-1.277 c 0.026,-0.186 0.132,-0.278 0.315,-0.278 h 1.298 c 0.185,0 0.291,-0.094 0.315,-0.278 l 0.301,-2.204 c 0.024,-0.185 0.13,-0.276 0.314,-0.276 h 1.296 c 0.186,0 0.267,0.092 0.241,0.276 l -0.299,2.204 c -0.027,0.185 0.053,0.278 0.238,0.278 h 2.223 c 0.185,0 0.265,0.093 0.24,0.278 l -0.178,1.295 c -0.024,0.187 -0.13,0.279 -0.315,0.279 h -2.223 c -0.186,0 -0.29,0.092 -0.314,0.277 l -0.594,4.352 c -0.036,0.26 0.023,0.48 0.179,0.658 0.154,0.179 0.361,0.269 0.621,0.269 h 1.667 z" id="path3216" inkscape:connector-curvature="0" style="fill:#282828"/><path d="m 382.705,181.401 c 0.383,0 0.734,0.074 1.053,0.222 0.32,0.148 0.585,0.346 0.801,0.594 0.213,0.246 0.369,0.54 0.471,0.879 0.104,0.34 0.129,0.701 0.076,1.084 l -0.341,2.5 c -0.026,0.186 -0.131,0.277 -0.317,0.277 h -6.111 c -0.185,0 -0.29,0.092 -0.315,0.279 l -0.088,0.646 c -0.035,0.26 0.023,0.48 0.179,0.658 0.154,0.179 0.36,0.269 0.62,0.269 h 5.093 c 0.187,0 0.267,0.093 0.241,0.278 l -0.177,1.297 c -0.025,0.185 -0.131,0.277 -0.316,0.277 h -5.093 c -0.383,0 -0.734,-0.074 -1.054,-0.223 -0.318,-0.148 -0.585,-0.346 -0.798,-0.592 -0.214,-0.248 -0.371,-0.541 -0.473,-0.88 -0.102,-0.341 -0.128,-0.7 -0.076,-1.085 l 0.507,-3.703 c 0.052,-0.383 0.176,-0.744 0.369,-1.084 0.194,-0.339 0.432,-0.633 0.714,-0.879 0.279,-0.248 0.6,-0.445 0.959,-0.594 0.359,-0.147 0.731,-0.222 1.114,-0.222 h 2.962 z m -3.217,1.853 c -0.259,0 -0.488,0.09 -0.693,0.268 -0.204,0.18 -0.323,0.398 -0.357,0.658 l -0.126,0.926 h 4.815 l 0.127,-0.926 c 0.035,-0.26 -0.025,-0.479 -0.181,-0.658 -0.153,-0.178 -0.361,-0.268 -0.621,-0.268 h -2.964 z" id="path3218" inkscape:connector-curvature="0" style="fill:#282828"/><path d="m 393.317,181.68 -0.177,1.295 c -0.025,0.187 -0.131,0.279 -0.315,0.279 h -2.686 c -0.26,0 -0.492,0.092 -0.696,0.277 -0.204,0.185 -0.322,0.408 -0.358,0.666 l -0.844,6.188 c -0.024,0.185 -0.13,0.277 -0.315,0.277 h -1.297 c -0.185,0 -0.265,-0.093 -0.239,-0.277 l 0.844,-6.188 c 0.052,-0.383 0.172,-0.74 0.359,-1.074 0.187,-0.332 0.421,-0.625 0.703,-0.88 0.281,-0.251 0.6,-0.452 0.952,-0.602 0.354,-0.147 0.723,-0.228 1.106,-0.24 h 2.723 c 0.186,0 0.266,0.093 0.24,0.279 z" id="path3220" inkscape:connector-curvature="0" style="fill:#282828"/><path d="m 401.816,181.623 c 0.319,0.148 0.585,0.346 0.799,0.594 0.214,0.246 0.371,0.54 0.473,0.879 0.102,0.34 0.128,0.701 0.075,1.084 l -0.847,6.205 c -0.025,0.185 -0.131,0.277 -0.315,0.277 h -1.297 c -0.185,0 -0.265,-0.093 -0.24,-0.277 l 0.847,-6.205 c 0.034,-0.26 -0.024,-0.479 -0.18,-0.658 -0.153,-0.178 -0.36,-0.268 -0.62,-0.268 h -3.612 c -0.186,0 -0.29,0.092 -0.314,0.277 l -0.935,6.854 c -0.025,0.185 -0.13,0.277 -0.316,0.277 h -1.296 c -0.187,0 -0.265,-0.093 -0.24,-0.277 l 1.188,-8.705 c 0.024,-0.186 0.129,-0.278 0.314,-0.278 h 5.464 c 0.382,-10e-4 0.733,0.074 1.052,0.221 z" id="path3222" inkscape:connector-curvature="0" style="fill:#282828"/><path d="m 411.319,181.401 c 0.384,0 0.733,0.074 1.054,0.222 0.318,0.148 0.585,0.346 0.799,0.594 0.214,0.246 0.371,0.54 0.473,0.879 0.103,0.34 0.128,0.701 0.076,1.084 l -0.342,2.5 c -0.025,0.186 -0.131,0.277 -0.316,0.277 h -6.111 c -0.186,0 -0.29,0.092 -0.316,0.279 l -0.088,0.646 c -0.036,0.26 0.023,0.48 0.18,0.658 0.154,0.179 0.36,0.269 0.62,0.269 h 5.093 c 0.186,0 0.267,0.093 0.241,0.278 l -0.178,1.297 c -0.024,0.185 -0.13,0.277 -0.315,0.277 h -5.095 c -0.381,0 -0.733,-0.074 -1.052,-0.223 -0.32,-0.148 -0.585,-0.346 -0.799,-0.592 -0.214,-0.248 -0.372,-0.541 -0.474,-0.88 -0.101,-0.341 -0.127,-0.7 -0.074,-1.085 l 0.505,-3.703 c 0.053,-0.383 0.177,-0.744 0.371,-1.084 0.193,-0.339 0.432,-0.633 0.712,-0.879 0.28,-0.248 0.601,-0.445 0.961,-0.594 0.359,-0.147 0.73,-0.222 1.112,-0.222 h 2.963 z m -3.215,1.853 c -0.259,0 -0.49,0.09 -0.693,0.268 -0.204,0.18 -0.323,0.398 -0.358,0.658 l -0.127,0.926 h 4.816 l 0.126,-0.926 c 0.035,-0.26 -0.024,-0.479 -0.179,-0.658 -0.154,-0.178 -0.362,-0.268 -0.621,-0.268 h -2.964 z" id="path3224" inkscape:connector-curvature="0" style="fill:#282828"/><path d="m 420.774,188.81 c 0.185,0 0.266,0.093 0.24,0.278 l -0.177,1.297 c -0.025,0.185 -0.131,0.277 -0.316,0.277 h -1.666 c -0.383,0 -0.734,-0.074 -1.054,-0.223 -0.32,-0.149 -0.585,-0.346 -0.799,-0.592 -0.213,-0.248 -0.37,-0.541 -0.473,-0.88 -0.103,-0.341 -0.127,-0.7 -0.075,-1.085 l 0.597,-4.371 c 0.025,-0.184 -0.055,-0.277 -0.239,-0.277 h -1.298 c -0.185,0 -0.265,-0.092 -0.239,-0.277 l 0.174,-1.277 c 0.025,-0.186 0.131,-0.278 0.315,-0.278 h 1.298 c 0.185,0 0.291,-0.094 0.315,-0.278 l 0.3,-2.204 c 0.025,-0.185 0.131,-0.276 0.316,-0.276 h 1.295 c 0.186,0 0.267,0.092 0.241,0.276 l -0.3,2.204 c -0.026,0.185 0.054,0.278 0.239,0.278 h 2.223 c 0.185,0 0.265,0.093 0.239,0.278 l -0.177,1.295 c -0.024,0.187 -0.13,0.279 -0.315,0.279 h -2.223 c -0.186,0 -0.29,0.092 -0.315,0.277 l -0.593,4.352 c -0.036,0.26 0.023,0.48 0.178,0.658 0.155,0.179 0.362,0.269 0.621,0.269 h 1.668 z" id="path3226" inkscape:connector-curvature="0" style="fill:#282828"/></g></g><path d="M 116.334,37.227 C 107.358,29.38 95.876995,24.348 83.258995,23.498" id="path3228" inkscape:connector-curvature="0" style="fill:none"/><path d="m 42.591995,121.699 c 8.976,7.848 20.459,12.885 33.078,13.729" id="path3230" inkscape:connector-curvature="0" style="fill:none"/><path d="m 83.258995,135.428 c 12.619,-0.85 24.101005,-5.881 33.075005,-13.729" id="path3232" inkscape:connector-curvature="0" style="fill:none"/><path d="m 37.225995,42.593 c -7.845,8.975 -12.88,20.458 -13.727,33.076" id="path3234" inkscape:connector-curvature="0" style="fill:none"/><path d="m 75.669995,23.499 c -12.618,0.85 -24.102,5.881 -33.075,13.729" id="path3236" inkscape:connector-curvature="0" style="fill:none"/><path d="m 23.499995,83.259 c 0.847,12.618 5.882,24.101 13.727,33.075" id="path3238" inkscape:connector-curvature="0" style="fill:none"/><path d="m 83.258995,135.428 v 13.5 c 16.329,-0.885 31.176005,-7.425 42.616005,-17.689 l -9.541,-9.539 c -8.974,7.847 -20.457005,12.878 -33.075005,13.728 z" id="path3240" inkscape:connector-curvature="0" style="fill:#9cc122"/><path d="M 75.669995,23.499 V 10 c -16.329,0.884 -31.175,7.42 -42.616,17.688 l 9.541,9.539 c 8.973,-7.847 20.456,-12.878 33.075,-13.728 z" id="path3242" inkscape:connector-curvature="0" style="fill:#282828"/><path d="m 116.334,37.227 9.541,-9.539 C 114.435,17.423 99.586995,10.883 83.258995,10 v 13.499 c 12.618,0.85 24.099005,5.881 33.075005,13.728 z" id="path3244" inkscape:connector-curvature="0" style="fill:#bfbfbf"/><path d="m 37.225995,42.593 -9.539,-9.539 c -10.264,11.439 -16.804,26.289 -17.6869996,42.614 H 23.498995 c 0.847,-12.617 5.883,-24.1 13.727,-33.075 z" id="path3246" inkscape:connector-curvature="0" style="fill:#9cc122"/><path d="m 42.591995,121.699 -9.539,9.539 c 11.441,10.268 26.287,16.805 42.616,17.689 v -13.5 c -12.618,-0.843 -24.101,-5.88 -33.077,-13.728 z" id="path3248" inkscape:connector-curvature="0" style="fill:#9cc122"/><path d="m 23.499995,83.259 h -13.499 c 0.882,16.326 7.422,31.175 17.687,42.614 l 9.539,-9.539 c -7.845,-8.975 -12.881,-20.457 -13.727,-33.075 z" id="path3250" inkscape:connector-curvature="0" style="fill:#9cc122"/><g id="g3252" transform="translate(-130.699,-62.627)"><g id="g3254"><path stroke-miterlimit="10" d="m 227.342,114.883 c 1.598,0 3.066,0.309 4.402,0.927 1.337,0.62 2.452,1.445 3.348,2.477 0.896,1.033 1.559,2.257 1.99,3.675 0.432,1.419 0.542,2.928 0.331,4.525 l -5.466,41.393 c -0.103,0.774 -0.54,1.159 -1.314,1.159 h -5.416 c -0.773,0 -1.109,-0.385 -1.008,-1.159 l 2.402,-18.183 c 0.103,-0.773 -0.234,-1.16 -1.008,-1.16 H 203.94 c -0.774,0 -1.211,0.387 -1.313,1.16 l -2.401,18.183 c -0.103,0.774 -0.54,1.159 -1.314,1.159 h -5.416 c -0.773,0 -1.109,-0.385 -1.008,-1.159 l 5.467,-41.393 c 0.212,-1.598 0.721,-3.106 1.526,-4.525 0.807,-1.418 1.792,-2.643 2.961,-3.675 1.167,-1.032 2.502,-1.856 4.001,-2.477 1.5,-0.618 3.05,-0.927 4.649,-0.927 h 16.25 z m -0.716,25.917 c 0.773,0 1.212,-0.387 1.313,-1.161 l 1.738,-13.152 c 0.143,-1.083 -0.111,-1.999 -0.759,-2.747 -0.65,-0.747 -1.515,-1.122 -2.598,-1.122 h -16.247 c -1.083,0 -2.05,0.375 -2.895,1.122 -0.848,0.749 -1.343,1.664 -1.485,2.747 l -1.738,13.152 c -0.102,0.774 0.234,1.161 1.008,1.161 h 21.663 z" id="path3256" inkscape:connector-curvature="0" style="fill:#282828;stroke:#282828;stroke-miterlimit:10"/><path stroke-miterlimit="10" d="m 282.412,122.618 h -13.539 c -0.774,0 -1.212,0.388 -1.315,1.162 l -5.824,44.1 c -0.103,0.774 -0.54,1.159 -1.314,1.159 h -5.416 c -0.773,0 -1.109,-0.385 -1.008,-1.159 l 5.825,-44.1 c 0.103,-0.774 -0.233,-1.162 -1.007,-1.162 h -13.539 c -0.774,0 -1.11,-0.386 -1.008,-1.16 l 0.716,-5.417 c 0.101,-0.773 0.54,-1.159 1.313,-1.159 h 37.137 c 0.773,0 1.109,0.386 1.008,1.159 l -0.716,5.417 c -0.101,0.774 -0.539,1.16 -1.313,1.16 z" id="path3258" inkscape:connector-curvature="0" style="fill:#282828;stroke:#282828;stroke-miterlimit:10"/><path stroke-miterlimit="10" d="m 330.088,116.042 -6.848,51.838 c -0.102,0.774 -0.54,1.159 -1.313,1.159 h -7.813 c -0.619,0 -1.05,-0.257 -1.292,-0.773 l -15.058,-39.457 c -0.153,-0.413 -0.357,-0.62 -0.615,-0.62 -0.258,0 -0.432,0.336 -0.52,1.006 l -5.109,38.684 c -0.102,0.774 -0.54,1.159 -1.313,1.159 h -5.415 c -0.774,0 -1.111,-0.385 -1.009,-1.159 l 6.848,-51.838 c 0.102,-0.773 0.539,-1.159 1.313,-1.159 h 7.815 c 0.619,0 1.049,0.258 1.29,0.773 l 15.059,39.457 c 0.152,0.414 0.331,0.619 0.538,0.619 0.309,0 0.509,-0.334 0.597,-1.006 l 5.109,-38.685 c 0.102,-0.773 0.54,-1.159 1.314,-1.159 h 5.415 c 0.773,0.002 1.108,0.388 1.007,1.161 z" id="path3260" inkscape:connector-curvature="0" style="fill:#282828;stroke:#282828;stroke-miterlimit:10"/><path stroke-miterlimit="10" d="m 378.982,114.883 c 0.773,0 1.108,0.386 1.008,1.159 l -5.468,41.392 c -0.211,1.6 -0.721,3.109 -1.526,4.527 -0.805,1.418 -1.794,2.645 -2.961,3.675 -1.168,1.033 -2.503,1.856 -4.002,2.476 -1.5,0.619 -3.05,0.928 -4.648,0.928 h -16.247 c -1.6,0 -3.067,-0.309 -4.405,-0.928 -1.336,-0.619 -2.451,-1.442 -3.346,-2.476 -0.896,-1.03 -1.56,-2.257 -1.991,-3.675 -0.433,-1.418 -0.542,-2.928 -0.33,-4.527 l 4.086,-30.946 c 0.212,-1.598 0.721,-3.106 1.526,-4.525 0.807,-1.418 1.794,-2.643 2.962,-3.675 1.167,-1.032 2.502,-1.856 4.001,-2.477 1.5,-0.618 3.05,-0.927 4.649,-0.927 h 26.692 z m -27.712,7.735 c -1.083,0 -2.05,0.375 -2.896,1.122 -0.849,0.749 -1.342,1.664 -1.485,2.747 l -4.088,30.946 c -0.143,1.084 0.109,2.002 0.759,2.748 0.65,0.748 1.516,1.122 2.6,1.122 h 16.247 c 1.083,0 2.048,-0.374 2.895,-1.122 0.847,-0.746 1.342,-1.664 1.485,-2.748 l 4.445,-33.653 c 0.103,-0.774 -0.234,-1.162 -1.008,-1.162 H 351.27 z" id="path3262" inkscape:connector-curvature="0" style="fill:#282828;stroke:#282828;stroke-miterlimit:10"/><path stroke-miterlimit="10" d="m 423.253,157.512 h -0.077 c -0.211,1.6 -0.719,3.095 -1.521,4.487 -0.803,1.394 -1.789,2.618 -2.961,3.675 -1.172,1.059 -2.492,1.884 -3.964,2.476 -1.472,0.595 -3.005,0.89 -4.604,0.89 H 384.98 c -0.773,0 -1.108,-0.385 -1.008,-1.159 l 0.716,-5.417 c 0.102,-0.773 0.54,-1.159 1.313,-1.159 h 25.146 c 1.03,0 1.971,-0.374 2.815,-1.122 0.847,-0.746 1.344,-1.664 1.486,-2.748 h 0.078 l 1.021,-7.736 c 0.144,-1.082 -0.122,-1.998 -0.797,-2.745 -0.676,-0.748 -1.528,-1.122 -2.561,-1.122 h -17.33 c -1.496,0 -2.831,-0.335 -4.006,-1.006 -1.176,-0.67 -2.168,-1.559 -2.975,-2.669 -0.809,-1.108 -1.391,-2.36 -1.749,-3.753 -0.358,-1.392 -0.444,-2.786 -0.26,-4.178 l 1.021,-7.737 c 0.212,-1.598 0.708,-3.106 1.488,-4.525 0.781,-1.418 1.767,-2.643 2.962,-3.675 1.192,-1.032 2.527,-1.856 4.003,-2.477 1.474,-0.618 3.01,-0.927 4.609,-0.927 h 24.062 c 0.773,0 1.108,0.386 1.007,1.159 l -0.715,5.417 c -0.103,0.774 -0.54,1.16 -1.313,1.16 H 399.93 c -1.031,0 -1.972,0.375 -2.816,1.122 -0.848,0.749 -1.343,1.664 -1.486,2.747 l -1.021,7.737 c -0.143,1.083 0.11,2 0.759,2.746 0.65,0.75 1.49,1.122 2.522,1.122 h 17.331 c 1.442,0 2.751,0.348 3.923,1.045 1.171,0.696 2.176,1.586 3.014,2.668 0.835,1.083 1.447,2.309 1.835,3.675 0.386,1.367 0.488,2.747 0.305,4.14 l -1.043,7.889 z" id="path3264" inkscape:connector-curvature="0" style="fill:#282828;stroke:#282828;stroke-miterlimit:10"/></g></g></svg>